# xmcd CD database file
#
# Track frame offsets:
#	150
#	15379
#	31839
#	51906
#	66855
#	87997
#	101658
#	117631
#
# Disc length: 1800 seconds
#
# Revision: 0
# Processed by: cddbd v1.5.2PL0 Copyright (c) Steve Scherf et al.
# Submitted via: CDex 1.70beta2
#
DISCID=64070608
DTITLE=Nicole Frechette - Nicole Frechette
DYEAR=2006
DGENRE=Country
TTITLE0=Yeah Right
TTITLE1=Life Had Other Plans
TTITLE2=A Good Place to Turn Around
TTITLE3=I Wish I Knew
TTITLE4=Cross Against the Moon
TTITLE5=Watcha' Think About That
TTITLE6=That Kind of Love
TTITLE7=Don't Make Me Go Tonight
EXTD=YEAR: 2006
EXTT0=
EXTT1=
EXTT2=
EXTT3=
EXTT4=
EXTT5=
EXTT6=
EXTT7=
PLAYORDER=
